<svg xmlns="http://www.w3.org/2000/svg" xmlns:xlink="http://www.w3.org/1999/xlink" version="1.1" width="966.1016949152543" height="966.1016949152543" viewBox="000 0 966.1016949152543 966.1016949152543">
    <g transform="scale(10.169491525423728) translate(10, 10)">
        <defs id="SvgjsDefs1174" />
        <g id="SvgjsG1175" featureKey="2ou6gm-0" transform="matrix(1.4423076923076923,0,0,1.4423076923076923,-34.61366800161508,-34.61538461538461)" fill="#fff">
            <title xmlns="http://www.w3.org/2000/svg">UIdrawing</title>
            <path xmlns="http://www.w3.org/2000/svg"  d="M72.55,37.06A4,4,0,1,0,70,38a3.65,3.65,0,0,0,.74-.08A24,24,0,1,1,50,26a1,1,0,0,0,0-2A26,26,0,1,0,72.55,37.06ZM68,34a2,2,0,1,1,2,2A2,2,0,0,1,68,34Z" />
        </g>
    </g>
</svg>
