<svg xmlns="http://www.w3.org/2000/svg" xml:space="preserve" width="2000" height="406" data-id="lg_WjRPSClLonn0wIBB9b" data-version="1" viewBox="0 0 2000 406"><g data-padding="20"><g transform="translate(10 5.14)scale(.97468)"><rect width="790" height="161.59" x="197.624" y="-304.544" fill="none" rx="0" ry="0" transform="translate(423.09 549.17)"/><path fill="#fff" d="M649.204 372.241q-11.29 0-17.23-6.43-5.93-6.44-5.93-18.16v-53.77q0-11.73 5.93-18.16 5.94-6.44 17.23-6.44 11.3 0 17.23 6.44 5.94 6.43 5.94 18.16v10.58h-14.87v-11.58q0-9.3-7.87-9.3-7.86 0-7.86 9.3v55.91q0 9.15 7.86 9.15 7.87 0 7.87-9.15v-15.3h14.87v14.16q0 11.72-5.94 18.16-5.93 6.43-17.23 6.43m44.91-1.43v-85.8h-16.45v-14.3h48.62v14.3h-16.44v85.8Zm62.49 1.43q-11.59 0-17.74-6.58-6.15-6.57-6.15-18.59v-52.62q0-12.01 6.15-18.59t17.74-6.58q11.58 0 17.73 6.58t6.15 18.59v52.62q0 12.02-6.15 18.59-6.15 6.58-17.73 6.58m0-14.3q8.15 0 8.15-9.86v-54.63q0-9.87-8.15-9.87t-8.15 9.87v54.63q0 9.86 8.15 9.86m57.34 12.87v-100.1h23.31q12.15 0 17.73 5.65t5.58 17.38v6.14q0 15.59-10.3 19.74v.28q5.72 1.72 8.08 7.01t2.36 14.16v17.59q0 4.29.29 6.93.28 2.65 1.43 5.22h-16.02q-.86-2.43-1.14-4.57-.29-2.15-.29-7.73v-18.3q0-6.86-2.22-9.58-2.21-2.72-7.65-2.72h-5.43v42.9Zm15.73-57.2h5.72q4.72 0 7.08-2.43t2.36-8.15v-7.72q0-5.44-1.93-7.87t-6.08-2.43h-7.15Zm64.64 58.63q-11.59 0-17.74-6.58-6.15-6.57-6.15-18.59v-52.62q0-12.01 6.15-18.59t17.74-6.58q11.58 0 17.73 6.58t6.15 18.59v52.62q0 12.02-6.15 18.59-6.15 6.58-17.73 6.58m0-14.3q8.15 0 8.15-9.86v-54.63q0-9.87-8.15-9.87-8.16 0-8.16 9.87v54.63q0 9.86 8.16 9.86m57.34 14.29q-11.44 0-17.45-6.5-6-6.51-6-18.67v-76.36h15.73v77.51q0 5.15 2.07 7.43 2.07 2.29 5.93 2.29 3.87 0 5.94-2.29 2.07-2.28 2.07-7.43v-77.51h15.16v76.36q0 12.16-6.01 18.67-6 6.5-17.44 6.5m34.6-1.42v-100.1h19.74l15.3 59.92h.29v-59.92h14.01v100.1h-16.16l-18.88-73.07h-.28v73.07Zm61.07 0v-100.1h24.02q11.73 0 17.59 6.29 5.86 6.3 5.86 18.45v50.62q0 12.16-5.86 18.45t-17.59 6.29Zm15.73-14.3h8q3.86 0 5.94-2.29 2.07-2.28 2.07-7.43v-52.05q0-5.15-2.07-7.44-2.08-2.29-5.94-2.29h-8Zm54.62 14.3v-85.8h-16.44v-14.3h48.62v14.3h-16.45v85.8Zm35.61 0 16.3-100.1h21.31l16.3 100.1h-15.73l-2.86-19.87v.28h-17.88l-2.86 19.59Zm19.3-33.17h14.16l-7.01-49.48h-.28Zm42.19 33.17v-100.1h23.74q12.15 0 17.73 5.65 5.57 5.65 5.57 17.38v4q0 7.72-2.5 12.58-2.5 4.87-7.65 7.01v.29q11.73 4 11.73 20.87v8.58q0 11.59-6.08 17.66-6.08 6.08-17.8 6.08Zm15.73-59.34h6.15q4.72 0 7.08-2.43 2.35-2.43 2.35-8.15v-5.58q0-5.44-1.93-7.87t-6.07-2.43h-7.58Zm0 45.04h9.01q4.14 0 6.15-2.21 2-2.22 2-7.65v-8.73q0-6.86-2.36-9.51-2.36-2.64-7.8-2.64h-7Zm42.04 14.3v-100.1h15.73v85.8h25.88v14.3Zm49.19 0v-100.1h42.9v14.3h-27.17v26.46h21.6v14.3h-21.6v30.74h27.17v14.3ZM992.46-.216q-8.653.034-17.032 1.3l-.479-.206-.136.342c-59.553 9.501-100.972 64.334-93.832 124.215 7.148 59.884 60.302 103.434 120.42 98.657s105.731-56.18 103.327-116.434c-2.4-60.26-51.963-107.864-112.268-107.84m-23.393 123.941a24 24 0 0 0-5.643-1.984q.24-21.58 3.386-42.647a23.94 23.94 0 0 0 15.492-11.115 167.6 167.6 0 0 1 46.102 21.649q-.547 1.744-.82 3.556a184.7 184.7 0 0 0-58.517 30.507m-23.085 41.177a24 24 0 0 0 6.6 2.838q2.531 19.015 7.32 37.415a99.2 99.2 0 0 1-30.78-17.545 236 236 0 0 1 16.86-22.708m128.421-65.322h2.155q6.908.034 13.782.684a99.2 99.2 0 0 1-.82 29.275 236 236 0 0 0-17.853-21.204q2.19-4.036 2.736-8.721m13.235-13.304a168 168 0 0 0-15.834-.308 23.598 23.598 0 0 0-35.5-7.592 181.3 181.3 0 0 0-50.753-23.7 23.6 23.6 0 0 0-9.336-17.58q3.625-11.867 8.14-23.256 4.035-.342 8.105-.342c45.452 0 83.79 30.883 95.178 72.778M968.725 16.405a294 294 0 0 0-5.335 15.972l-1.437-.069a23.6 23.6 0 0 0-22.332 15.937q-11.936.035-23.7 1.779a99.18 99.18 0 0 1 52.804-33.619m-74.898 95.692c0-16.656 4.207-32.388 11.525-46.17a154 154 0 0 1 33.756-3.967 23.94 23.94 0 0 0 14.056 15.937 321.5 321.5 0 0 0-3.42 45.041 23.6 23.6 0 0 0-12.825 31.464 250 250 0 0 0-17.784 23.564 98.15 98.15 0 0 1-25.308-65.87m98.633 98.6q-8.824 0-17.27-1.54-5.918-20.52-8.893-41.963a23.598 23.598 0 0 0 12.86-33.926 171 171 0 0 1 50.273-26.334 23.6 23.6 0 0 0 32.387 11.012 226 226 0 0 1 22.983 28.694 98.84 98.84 0 0 1-92.34 64.056"/></g><path fill="transparent" stroke="transparent" d="M605 0h790v406H605z"/></g></svg>