
        <svg xmlns="http://www.w3.org/2000/svg" xmlns:xlink="http://www.w3.org/1999/xlink" version="1.1" width="3203.3898305084745" height="966.1016949152543" viewBox="100 0 3203.3898305084745 966.1016949152543">
			
			<g transform="scale(10.169491525423728) translate(10, 10)">
				<defs id="SvgjsDefs1174"/><g id="SvgjsG1175" featureKey="2ou6gm-0" transform="matrix(1.4423076923076923,0,0,1.4423076923076923,-34.61366800161508,-34.61538461538461)" fill="#bfeeff"><title xmlns="http://www.w3.org/2000/svg">UIdrawing</title><path xmlns="http://www.w3.org/2000/svg" d="M72.55,37.06A4,4,0,1,0,70,38a3.65,3.65,0,0,0,.74-.08A24,24,0,1,1,50,26a1,1,0,0,0,0-2A26,26,0,1,0,72.55,37.06ZM68,34a2,2,0,1,1,2,2A2,2,0,0,1,68,34Z"/></g><g id="SvgjsG1176" featureKey="nameFeature-0" transform="matrix(1.1737088571266108,0,0,1.1737088571266108,93.94366135698445,7.192488404798459)" fill="#bfeeff"><path d="M12.76 18.5 c-1.28 1.1 -2.9 1.7 -4.7 1.7 c-3.64 0 -7.16 -2.96 -7.16 -7.2 s3.52 -7.2 7.16 -7.2 c1.78 0 3.38 0.6 4.64 1.66 l-1.02 1.16 c-0.98 -0.78 -2.24 -1.24 -3.5 -1.24 c-2.86 0 -5.56 2.32 -5.56 5.62 s2.7 5.62 5.56 5.62 c1.28 0 2.56 -0.48 3.54 -1.28 z M23.700000000000003 6 l0 1.56 l-3.88 0 l0 12.44 l-1.66 0 l0 -12.44 l-3.9 0 l0 -1.56 l9.44 0 z M32.56 5.800000000000001 c3.64 0 7.16 2.96 7.16 7.2 s-3.52 7.2 -7.16 7.2 c-3.66 0 -7.16 -2.96 -7.16 -7.2 s3.5 -7.2 7.16 -7.2 z M32.56 18.62 c2.74 0 5.44 -2.32 5.44 -5.62 s-2.7 -5.62 -5.44 -5.62 c-2.76 0 -5.44 2.32 -5.44 5.62 s2.68 5.62 5.44 5.62 z M58.10000000000001 20 l-1.8 0 l-3.54 -5.04 l-0.38 0 l-2.9 0 l0 5.04 l-1.66 0 l0 -14 l4.56 0 c3.14 0 4.96 1.92 4.96 4.52 c0 2 -1.08 3.56 -3 4.16 z M49.480000000000004 7.5600000000000005 l0 5.92 l2.86 0 c2.02 0 3.34 -1.04 3.34 -2.96 c0 -1.94 -1.32 -2.96 -3.34 -2.96 l-2.86 0 z M66.76 5.800000000000001 c3.64 0 7.16 2.96 7.16 7.2 s-3.52 7.2 -7.16 7.2 c-3.66 0 -7.16 -2.96 -7.16 -7.2 s3.5 -7.2 7.16 -7.2 z M66.76 18.62 c2.74 0 5.44 -2.32 5.44 -5.62 s-2.7 -5.62 -5.44 -5.62 c-2.76 0 -5.44 2.32 -5.44 5.62 s2.68 5.62 5.44 5.62 z M84.52000000000001 6 l1.66 0 l0 8.92 c0 3.44 -2.24 5.38 -5.08 5.38 s-5.08 -1.94 -5.08 -5.38 l0 -8.92 l1.66 0 l0 8.92 c0 2.62 1.56 3.8 3.42 3.8 s3.42 -1.18 3.42 -3.8 l0 -8.92 z M98.34 6 l1.66 0 l0 14 l-1.28 0 l-8.48 -10.96 l0 10.96 l-1.66 0 l0 -14 l1.28 0 l8.48 10.98 l0 -10.98 z M106.56000000000002 6 c4.08 0 7.08 3.1 7.08 7 s-3 7 -7.08 7 l-4.16 0 l0 -14 l4.16 0 z M106.54000000000002 18.42 c3.34 0 5.4 -2.42 5.4 -5.42 s-2.06 -5.42 -5.4 -5.42 l-2.48 0 l0 10.84 l2.48 0 z M124.68 6 l0 1.56 l-3.88 0 l0 12.44 l-1.66 0 l0 -12.44 l-3.9 0 l0 -1.56 l9.44 0 z M138.00000000000003 20 l-1.44 -3.3 l-7.48 0 l-1.44 3.3 l-1.76 0 l6.24 -14 l1.38 0 l6.26 14 l-1.76 0 z M129.70000000000002 15.3 l6.24 0 l-3.12 -7.12 z M148.10000000000002 12.3 c1.84 0.42 3.04 1.94 3.04 3.7 c0 2.46 -1.6 4 -5.06 4 l-4.72 0 l0 -14 l4.78 0 c2.74 0 4.1 1.56 4.1 3.38 c0 1.34 -0.76 2.42 -2.14 2.92 z M146.02000000000004 7.48 l-3 0 l0 4.28 l3 0 c1.6 0 2.58 -0.88 2.58 -2.16 c0 -1.32 -0.92 -2.12 -2.58 -2.12 z M146.02000000000004 18.52 c2.4 0 3.46 -0.98 3.46 -2.66 c0 -1.46 -1.06 -2.72 -3.36 -2.72 l-3.1 0 l0 5.38 l3 0 z M154.70000000000005 18.44 l6.28 0 l0 1.56 l-7.94 0 l0 -14 l1.66 0 l0 12.44 z M164.64000000000004 18.44 l6.66 0 l0 1.56 l-7.06 0 l-1.26 0 l0 -14 l1.66 0 l6.48 0 l0 1.56 l-6.48 0 l0 4.64 l5.04 0 l0 1.52 l-5.04 0 l0 4.72 z"/></g><g id="SvgjsG1177" featureKey="sloganFeature-0" transform="matrix(1.375515551381719,0,0,1.375515551381719,93.34938127275224,33.077030109210774)" fill="#bfeeff"><path d="M2.86 6 l0 14 l-1.66 0 l0 -14 l1.66 0 z M15.020000000000001 6 l1.66 0 l0 14 l-1.28 0 l-8.48 -10.96 l0 10.96 l-1.66 0 l0 -14 l1.28 0 l8.48 10.98 l0 -10.98 z M30.400000000000002 6 l1.76 0 l-6.26 14 l-1.38 0 l-6.24 -14 l1.76 0 l5.18 11.82 z M35.42 18.44 l6.66 0 l0 1.56 l-7.06 0 l-1.26 0 l0 -14 l1.66 0 l6.48 0 l0 1.56 l-6.48 0 l0 4.64 l5.04 0 l0 1.52 l-5.04 0 l0 4.72 z M48.480000000000004 5.76 c2.18 0 3.78 1.44 4.38 2.94 l-1.26 0.68 c-0.64 -1.28 -1.66 -2.12 -3.12 -2.12 c-1.54 0 -2.6 0.88 -2.6 2.1 c0 1.14 0.72 1.86 2.24 2.44 l1.02 0.38 c2.52 0.94 4.1 2.02 4.1 4.24 c0 2.4 -2.3 3.88 -4.68 3.88 s-4.34 -1.44 -4.88 -3.44 l1.34 -0.64 c0.48 1.48 1.74 2.56 3.54 2.56 c1.6 0 2.96 -0.92 2.96 -2.34 c0 -1.6 -1.12 -2.2 -2.78 -2.84 l-1.04 -0.4 c-2.12 -0.8 -3.48 -1.9 -3.48 -3.88 c0 -2.04 1.8 -3.56 4.26 -3.56 z M63.580000000000005 6 l0 1.56 l-3.88 0 l0 12.44 l-1.66 0 l0 -12.44 l-3.9 0 l0 -1.56 l9.44 0 z"/></g>
			</g>
		</svg>
	